Coordinates
version=1
nRows=34
nColumns=38
inDegrees=no

Units are S.I. units (second, meters, Newtons, ...)
If the header above contains a line with 'inDegrees', this indicates whether rotational values are in degrees (yes) or radians (no).

endheader
time	pelvis_tilt	pelvis_list	pelvis_rotation	pelvis_tx	pelvis_ty	pelvis_tz	hip_flexion_r	hip_adduction_r	hip_rotation_r	knee_angle_r	ankle_angle_r	subtalar_angle_r	mtp_angle_r	hip_flexion_l	hip_adduction_l	hip_rotation_l	knee_angle_l	ankle_angle_l	subtalar_angle_l	mtp_angle_l	lumbar_extension	lumbar_bending	lumbar_rotation	arm_flex_r	arm_add_r	arm_rot_r	elbow_flex_r	pro_sup_r	wrist_flex_r	wrist_dev_r	arm_flex_l	arm_add_l	arm_rot_l	elbow_flex_l	pro_sup_l	wrist_flex_l	wrist_dev_l
0	2.7668	1.36328	-1.33829	0.823202	-0.901066	0.968437	-0.0267154	0.0491838	-0.404625	0.375111	0.0525336	0	0	-0.0542278	-0.267172	-0.254966	0.979571	-0.230262	0	0	-0.379837	0.0781379	0.130639	0.239591	-0.333513	1.09749	0.343571	0.664715	0	0	0.135075	-0.14147	0.0809047	0.28091	1.5708	0	0
0.01	2.80784	1.37774	-1.39006	0.82746	-0.894025	0.966866	-0.0382931	0.0442452	-0.412621	0.342283	0.0624767	0	0	-0.0241414	-0.262295	-0.266042	0.989292	-0.214092	0	0	-0.36393	0.0602125	0.141179	0.234114	-0.327988	1.08507	0.343546	0.669461	0	0	0.136121	-0.146467	0.085025	0.279873	1.5708	0	0
0.02	2.8872	1.36327	-1.47248	0.828695	-0.884175	0.969675	-0.0854515	0.0454435	-0.322848	0.305206	0.0681402	0	0	-0.0489819	-0.248877	-0.316214	0.959962	-0.139818	0	0	-0.375758	0.0462532	0.143156	0.228263	-0.327995	1.07578	0.346589	0.675142	0	0	0.134765	-0.146093	0.0844428	0.278741	1.5708	0	0
0.03	2.85233	1.37039	-1.43839	0.829828	-0.876915	0.969032	-0.0861869	0.0529468	-0.326985	0.302327	0.0711804	0	0	-0.0221924	-0.256704	-0.315943	0.960644	-0.122256	0	0	-0.366389	0.0544368	0.146925	0.227225	-0.331018	1.06862	0.348275	0.678251	0	0	0.135896	-0.142891	0.0854209	0.276119	1.5708	0	0
0.04	2.98184	1.34067	-1.5823	0.833536	-0.870889	0.974878	-0.13351	0.026869	-0.317507	0.288551	0.0644624	0	0	-0.0686418	-0.229304	-0.356167	0.908787	-0.123441	0	0	-0.404722	0.0197605	0.157096	0.234435	-0.322908	1.06343	0.338055	0.682079	0	0	0.1481	-0.146502	0.0917389	0.272746	1.5708	0	0
0.05	3.08922	1.31639	-1.70063	0.836566	-0.865413	0.979569	-0.173602	-0.00127446	-0.300513	0.273004	0.0617484	0	0	-0.0824469	-0.202394	-0.381361	0.885114	-0.134106	0	0	-0.435149	-0.0162198	0.161707	0.243927	-0.314819	1.06412	0.330038	0.687263	0	0	0.160347	-0.15227	0.0999919	0.272738	1.5708	0	0
0.06	2.98332	1.35159	-1.58988	0.836663	-0.856993	0.974315	-0.150558	0.0284435	-0.297024	0.270096	0.0731742	0	0	-0.0162834	-0.24127	-0.378099	0.910748	-0.0977784	0	0	-0.39309	0.0189315	0.165773	0.236927	-0.325122	1.06076	0.337442	0.69362	0	0	0.15144	-0.146214	0.103537	0.273658	1.5708	0	0
0.07	2.96853	1.36037	-1.57512	0.837598	-0.850052	0.973421	-0.152398	0.033799	-0.294576	0.264672	0.0791981	0	0	0.0123245	-0.235535	-0.359448	0.898338	-0.0832959	0	0	-0.383871	0.0227997	0.167322	0.238119	-0.326287	1.0497	0.338814	0.704572	0	0	0.151773	-0.147586	0.113594	0.277395	1.5708	0	0
0.08	2.93148	1.36209	-1.5389	0.838963	-0.842721	0.973386	-0.173969	0.0479666	-0.268432	0.230519	0.0654582	0	0	0.0294816	-0.245258	-0.364651	0.885585	-0.0713605	0	0	-0.381121	0.0314889	0.169969	0.241892	-0.333207	1.08212	0.347534	0.658424	0	0	0.155131	-0.144119	0.0968112	0.268984	1.5708	0	0
0.09	2.9335	1.35133	-1.52594	0.834995	-0.836714	0.977796	-0.23816	0.0343811	-0.158353	0.109337	-0.0154948	0	0	0.0454734	-0.205034	-0.322142	0.873584	-0.0476752	0	0	-0.395232	0.0364857	0.149622	0.254588	-0.326802	1.08689	0.326149	0.658235	0	0	0.160278	-0.138993	0.097806	0.26357	1.5708	0	0
0.1	2.91916	1.33785	-1.52208	0.83905	-0.828829	0.9782	-0.270036	0.0472413	-0.138802	0.0940904	-0.0217508	0	0	0.0171759	-0.252391	-0.404012	0.827054	-0.0581468	0	0	-0.411468	0.0406026	0.169056	0.250879	-0.342457	1.08539	0.352376	0.65537	0	0	0.16387	-0.137719	0.0989008	0.266427	1.5708	0	0
0.11	2.94063	1.35319	-1.54849	0.842029	-0.821939	0.977497	-0.256139	0.049864	-0.166066	0.101662	-0.0150071	0	0	0.0459111	-0.242208	-0.403512	0.804154	-0.0512453	0	0	-0.390367	0.0238937	0.167317	0.25301	-0.320537	1.08151	0.325167	0.656273	0	0	0.160943	-0.147478	0.108004	0.267786	1.5708	0	0
0.12	2.93141	1.34231	-1.54343	0.841864	-0.816065	0.978055	-0.282022	0.0453102	-0.160927	0.0860377	-0.0131038	0	0	0.0468349	-0.232714	-0.415863	0.780518	-0.0476494	0	0	-0.411178	0.0331445	0.17604	0.258408	-0.340733	1.08247	0.352168	0.654504	0	0	0.169236	-0.141395	0.108898	0.268988	1.5708	0	0
0.13	2.99077	1.35596	-1.60787	0.844037	-0.80912	0.97571	-0.273293	0.0351798	-0.18471	0.0892955	0.0518053	0	0	0.0697936	-0.220203	-0.43816	0.756004	-0.0434184	0	0	-0.396076	0.0158424	0.17765	0.258285	-0.337688	1.08228	0.35369	0.656292	0	0	0.169635	-0.146024	0.110289	0.271203	1.5708	0	0
0.14	3.04687	1.34475	-1.66806	0.845802	-0.803069	0.977434	-0.299619	0.0221534	-0.175242	0.0746074	0.0477775	0	0	0.0622526	-0.205592	-0.464004	0.718503	-0.0491206	0	0	-0.412015	-0.00175621	0.179392	0.264907	-0.332141	1.08045	0.3466	0.65936	0	0	0.178546	-0.148774	0.116671	0.270255	1.5708	0	0
0.15	3.0093	1.33276	-1.62615	0.845501	-0.796514	0.979553	-0.332306	0.0271889	-0.149447	0.0563457	-0.0134685	0	0	0.0560328	-0.209673	-0.475171	0.683137	-0.0469657	0	0	-0.430012	0.0089776	0.178273	0.272418	-0.336339	1.09052	0.347175	0.646937	0	0	0.185268	-0.144371	0.116852	0.266378	1.5708	0	0
0.16	3.04515	1.35604	-1.66574	0.846787	-0.789015	0.975334	-0.308421	0.0224802	-0.179132	0.0670207	0.0574454	0	0	0.0901968	-0.20152	-0.49524	0.658427	-0.0336752	0	0	-0.402516	0.000329843	0.182011	0.267012	-0.331732	1.06313	0.341872	0.688057	0	0	0.181598	-0.149052	0.140779	0.271389	1.5708	0	0
0.17	3.08438	1.34111	-1.70692	0.848264	-0.783243	0.976827	-0.335572	0.0129059	-0.158226	0.0745508	0.207992	0	0	0.0750546	-0.19282	-0.538038	0.616462	-0.0363243	0	0	-0.423102	-0.0150605	0.180754	0.275555	-0.330147	1.06874	0.34489	0.680785	0	0	0.194069	-0.168557	0.162784	0.296748	1.5708	0	0
0.18	3.12317	1.34115	-1.74972	0.84863	-0.775691	0.976691	-0.346997	0.00029942	-0.172622	0.0493298	0.05928	0	0	0.0756349	-0.173416	-0.559008	0.570046	-0.0399751	0	0	-0.422514	-0.0228131	0.182829	0.279605	-0.334025	1.10171	0.346864	0.63345	0	0	0.198129	-0.145195	0.121395	0.255725	1.5708	0	0
0.19	-3.02729	1.2977	-1.89242	0.851088	-0.771381	0.982385	-0.391864	-0.0480644	-0.175928	0.0446484	0.0584212	0	0	0.0242203	-0.114022	-0.604981	0.490566	-0.0779211	0	0	-0.471545	-0.0760992	0.179059	0.293423	-0.321666	1.09092	0.334683	0.645865	0	0	0.218171	-0.151699	0.128933	0.251812	1.5708	0	0
0.2	-3.01947	1.29929	-1.89905	0.851333	-0.764569	0.981423	-0.398841	-0.0499434	-0.176641	0.0426855	0.0623545	0	0	0.0320943	-0.104652	-0.617983	0.45392	-0.0783379	0	0	-0.472452	-0.0775964	0.178549	0.296462	-0.322436	1.09222	0.334891	0.644099	0	0	0.224267	-0.150174	0.128781	0.245328	1.5708	0	0
0.21	-3.13921	1.3461	-1.76826	0.849698	-0.754984	0.973875	-0.370899	-0.00430903	-0.16997	0.0391258	0.0698304	0	0	0.0953808	-0.143548	-0.593825	0.452694	-0.039384	0	0	-0.424764	-0.0272496	0.183553	0.28829	-0.336029	1.11046	0.346551	0.622941	0	0	0.214368	-0.141758	0.126764	0.241425	1.5708	0	0
0.22	3.10622	1.35046	-1.73488	0.851928	-0.747313	0.972169	-0.379544	0.00607307	-0.15971	0.0332733	0.0714603	0	0	0.100881	-0.146506	-0.615563	0.414751	-0.0321213	0	0	-0.421357	-0.0222165	0.192027	0.287894	-0.334858	1.11236	0.346413	0.621723	0	0	0.216029	-0.143347	0.130161	0.240477	1.5708	0	0
0.23	2.97095	1.32471	-1.59783	0.8502	-0.743133	0.974609	-0.413404	0.0356284	-0.149793	0.0340525	0.0564364	0	0	0.0803585	-0.170407	-0.616091	0.384451	-0.0248036	0	0	-0.463951	0.0113501	0.198967	0.305694	-0.35163	1.12158	0.35782	0.624886	0	0	0.229101	-0.133585	0.13788	0.238845	1.5708	0	0
0.24	3.10943	1.35943	-1.71788	0.848684	-0.733241	0.968249	-0.385565	0.00788168	-0.180095	0.0378214	0.0870575	0	0	0.126011	-0.122541	-0.600487	0.342279	-0.0186998	0	0	-0.419289	-0.0136715	0.174976	0.2962	-0.343312	1.12189	0.353431	0.61948	0	0	0.222951	-0.158614	0.167897	0.270759	1.5708	0	0
0.25	3.11482	1.36769	-1.72061	0.848204	-0.725908	0.966822	-0.379706	0.00568438	-0.188646	0.0488904	0.0969339	0	0	0.141121	-0.112321	-0.602691	0.309058	-0.0144866	0	0	-0.413156	-0.0117718	0.1761	0.29314	-0.338371	1.07893	0.339832	0.689616	0	0	0.217484	-0.146555	0.203062	0.260598	1.52034	0	0
0.26	2.97423	1.40757	-1.56662	0.848375	-0.71954	0.960711	-0.339772	0.0409245	-0.192181	0.0613756	0.106491	0	0	0.204407	-0.140689	-0.581456	0.303447	0.00698561	0	0	-0.375635	0.0207104	0.170857	0.299675	-0.346442	1.14459	0.353221	0.604082	0	0	0.225775	-0.136498	0.126186	0.236199	1.5708	0	0
0.27	3.11338	1.3726	-1.71075	0.847175	-0.710931	0.963932	-0.386543	0.00481942	-0.204009	0.0603545	0.111873	0	0	0.145428	-0.083919	-0.592474	0.218173	-0.0116154	0	0	-0.413353	-0.00733041	0.167862	0.304981	-0.349591	1.15252	0.355191	0.605755	0	0	0.23017	-0.134898	0.127787	0.235724	1.5708	0	0
0.28	2.98377	1.41145	-1.5689	0.847577	-0.704034	0.958057	-0.347569	0.0365879	-0.205864	0.073805	0.121806	0	0	0.202975	-0.108549	-0.569327	0.208567	0.00603707	0	0	-0.375448	0.0203387	0.165746	0.301108	-0.346066	1.13856	0.349972	0.631521	0	0	0.228221	-0.135992	0.130877	0.236513	1.5708	0	0
0.29	2.9788	1.41596	-1.56058	0.847161	-0.696044	0.956322	-0.346559	0.0353054	-0.214903	0.0847731	0.132682	0	0	0.204655	-0.0952526	-0.560963	0.164865	0.0054649	0	0	-0.371919	0.021663	0.16289	0.301987	-0.347504	1.14533	0.351556	0.628448	0	0	0.228392	-0.135285	0.129103	0.236124	1.5708	0	0
0.3	2.97323	1.41874	-1.5532	0.846823	-0.687858	0.954672	-0.347614	0.0335361	-0.222288	0.0954928	0.142444	0	0	0.201773	-0.0813915	-0.546621	0.119457	0.00160081	0	0	-0.369736	0.0225339	0.161602	0.302702	-0.348296	1.14881	0.352033	0.623919	0	0	0.228496	-0.134449	0.128395	0.234784	1.5708	0	0
0.31	2.96565	1.42034	-1.54413	0.846645	-0.679369	0.953077	-0.350574	0.0321676	-0.229112	0.105541	0.150928	0	0	0.197837	-0.0698282	-0.531262	0.0794887	-0.00229358	0	0	-0.368006	0.0231557	0.161247	0.302517	-0.348463	1.15211	0.351737	0.619897	0	0	0.228804	-0.133732	0.126969	0.232921	1.5708	0	0
0.32	2.95342	1.41907	-1.5332	0.846735	-0.670162	0.9516	-0.358324	0.0308453	-0.233727	0.113488	0.157929	0	0	0.172646	-0.0496305	-0.490804	0.00490276	-0.0281399	0	0	-0.367501	0.0238228	0.16345	0.300953	-0.348799	1.15258	0.351988	0.612504	0	0	0.227465	-0.132839	0.123558	0.231419	1.5708	0	0
0.33	2.95743	1.41656	-1.53406	0.84698	-0.661417	0.950255	-0.365402	0.0332602	-0.231734	0.123715	0.160922	0	0	0.174825	-0.0462096	-0.483591	0	-0.0267443	0	0	-0.36959	0.0216457	0.162413	0.299725	-0.347628	1.15276	0.351529	0.610115	0	0	0.228094	-0.133535	0.122936	0.231149	1.5708	0	0
